<svg xmlns="http://www.w3.org/2000/svg" viewBox="0 0 227.58 160.01"><defs><style>.cls-1{fill:#b22024;}</style></defs><g id="Layer_2" data-name="Layer 2"><g id="Layer_1-2" data-name="Layer 1"><path class="cls-1" d="M47.8,72.05l0,.06,64,59.14c12.33,11.41,28.6,21.76,45.8,25.29a92.21,92.21,0,0,0,18.48,1.93c9.89,0,18.07-2.81,25.95-6.25,15.78-6.9,25.52-21.32,25.52-37.73A37.1,37.1,0,0,0,216.5,88a38.29,38.29,0,0,0-26.78-11.5c-.48,0-.95,0-1.43,0a26.38,26.38,0,0,0-25.62,25.39c0,.33,0,.66,0,1a18.78,18.78,0,1,0,33-12.28c10.75,2.93,18.73,12.31,18.73,23.92,0,13.88-10,22.31-17.59,25.6-21.46,9.39-50.36,5.11-75.95-18.56-8.57-7.93-27.76-25.63-41.25-38.07a133.47,133.47,0,0,1-19.81-6.84l-.16-.07c-1.54-.67-3.08-1.32-4.64-1.93-2.35-.92-4.74-1.78-7.15-2.57"/><path class="cls-1" d="M94,41.46a19.77,19.77,0,1,0,39.54,0V41A137.38,137.38,0,0,0,94,41v.49"/><path class="cls-1" d="M19,105.79,51.82,142l16.3,18a12.15,12.15,0,0,0,4.67-9.58A134.74,134.74,0,0,0,56.64,86.27a134.49,134.49,0,0,0-8.81-14.16l0-.06h0a134.17,134.17,0,0,0-16.68-4.31c-1.91-.36-3.83-.69-5.78-1a19.49,19.49,0,0,1,5.05,1.55A19.77,19.77,0,0,1,22.1,106a19.1,19.1,0,0,1-3.14-.25"/><path class="cls-1" d="M0,22.39v15.2q2.76.12,5.55.12c1,0,2,0,3.06,0q1.77,0,3.54-.12,4.45-.21,8.83-.71l1-.12A134.29,134.29,0,0,0,59.59,26.49l.16-.07A133.64,133.64,0,0,1,90,17.3h0a134.58,134.58,0,0,1,17.86-2q3-.13,5.94-.13t5.94.13a135.14,135.14,0,0,1,48.1,11.09l.16.07a134.26,134.26,0,0,0,37.6,10.23l1,.12h0q6.1.69,12.37.84c1,0,2,0,3.05,0q2.79,0,5.55-.12V22.39q-2.76.12-5.55.12c-1,0-2.06,0-3.08,0a134.73,134.73,0,0,1-51-11.18l-.16-.07A134.4,134.4,0,0,0,129.21.87h0q-4.7-.54-9.46-.74l-.47,0C117.46,0,115.63,0,113.79,0s-3.67,0-5.49.11l-.45,0h0q-4.77.2-9.46.74h0A134.4,134.4,0,0,0,59.75,11.22l-.16.07a134.69,134.69,0,0,1-51,11.18c-1,0-2.05,0-3.08,0q-2.79,0-5.55-.12"/><path class="cls-1" d="M5.55,46.86q-2.79,0-5.55-.12v18.7c1.84-.08,3.69-.11,5.55-.11q1.53,0,3.06,0c2.59.06,5.17.19,7.72.4q4.19.31,8.29.9l.1,0,.59.08c2,.28,3.87.61,5.78,1A134.17,134.17,0,0,1,47.77,72h0c2.41.79,4.8,1.65,7.15,2.57,1.56.61,3.1,1.26,4.64,1.93l.16.07a133.47,133.47,0,0,0,19.81,6.84c2,.52,3.91,1,5.89,1.4,2.54.55,5.1,1,7.68,1.41,1.75.26,3.51.5,5.27.7a137.24,137.24,0,0,0,15.39.87A136.93,136.93,0,0,0,129.17,87c1.77-.2,3.53-.44,5.28-.7a134.78,134.78,0,0,0,33.38-9.65l.16-.07a134.36,134.36,0,0,1,28.5-8.82,132.62,132.62,0,0,1,14.76-2c2.56-.21,5.13-.34,7.73-.4,1,0,2,0,3.05,0,1.86,0,3.71,0,5.55.11V46.72c-1.84.07-3.69.11-5.55.11s-4,0-6-.13c-1.61-.07-3.22-.17-4.81-.29q-6.63-.52-13.07-1.68l-1.72-.31a134.38,134.38,0,0,1-28.64-8.88l-.17-.07a134.38,134.38,0,0,0-38.47-10.28c-1.61-.18-3.23-.34-4.85-.46-3.49-.27-7-.4-10.55-.4s-7.07.13-10.55.4c-1.62.12-3.24.28-4.85.46a134.48,134.48,0,0,0-37.51,9.88l-2.57,1.12-.08,0a134.41,134.41,0,0,1-27.09,8.22l-1.79.33c-2,.36-4.08.68-6.15.94-2.26.3-4.55.54-6.85.72-1.61.13-3.24.23-4.87.29q-2.94.14-5.93.14M113.79,72.6a134.83,134.83,0,0,1-54-11.22l-.16-.07q-5.84-2.54-11.94-4.54c-.73-.24-1.47-.47-2.21-.69l2.21-.71q6.1-2,11.94-4.54l.16-.07A134.25,134.25,0,0,1,94,41a136.43,136.43,0,0,1,39.54,0,134.25,134.25,0,0,1,34.27,9.78l.16.07q5.83,2.54,11.93,4.54l2.22.71-2.22.69q-6.09,2-11.93,4.54l-.16.07a134.83,134.83,0,0,1-54,11.22"/></g></g></svg>